<svg id="Layer_1" data-name="Layer 1" xmlns="http://www.w3.org/2000/svg" viewBox="0 0 165.14 87.68"><defs><style>.cls-1{fill:#bf2846;}.cls-2{fill:#ff435e;}</style></defs><title>logo4</title><polygon class="cls-1" points="121.05 87.68 35.83 87.68 27.07 78.93 27.07 33.49 12.46 49.92 0.07 37.54 27.07 5.53 44.59 5.53 44.59 70.17 117.42 70.17 140.68 46.91 116.81 23.04 69.44 23.04 69.44 5.53 120.44 5.53 124.07 5.53 165.14 46.61 165.14 46.61 124.72 87.68 121.05 87.68"/><circle class="cls-1" cx="115.3" cy="46.61" r="8.53"/><polygon class="cls-2" points="120.97 82.16 35.76 82.16 27 73.4 27 27.96 12.38 44.39 0 32.01 26.99 0 44.51 0 44.51 64.64 117.35 64.64 140.61 41.38 116.74 17.51 69.37 17.51 69.37 0 120.36 0 123.99 0 165.07 41.08 165.07 41.08 124.64 82.16 120.97 82.16"/><circle class="cls-2" cx="115.22" cy="41.08" r="8.53"/></svg>